<svg width="36" height="36" viewBox="0 0 36 36" fill="none" xmlns="http://www.w3.org/2000/svg">
<path d="M29.9355 6.0525C29.418 6.0165 28.9125 6 28.4175 6C17.667 6 11.5455 14.196 9.3195 20.7915L15.228 26.6985C22.014 24.27 30 18.375 30 7.74C30 7.1895 29.979 6.6285 29.9355 6.0525ZM15.8385 23.775L12.2355 20.172C13.7625 16.5975 18.1005 8.9895 27.4845 8.5215C27.1695 15.7395 22.4325 20.9355 15.8385 23.775ZM22.677 25.698C21.993 26.1645 21.315 26.586 20.643 26.961C20.409 28.074 19.815 29.2635 18.954 30.276C18.9525 29.556 18.7515 28.83 18.4005 28.1025C17.781 28.383 17.193 28.6245 16.632 28.8375C17.4585 30.9735 16.617 32.5515 15.4875 34.0305C17.1075 33.909 18.8085 33.1155 20.1465 31.7745C21.594 30.3315 22.6065 28.2465 22.677 25.698ZM7.9035 17.61C7.1805 17.262 6.456 17.064 5.739 17.0595C6.7425 16.209 7.9185 15.618 9.021 15.378C9.414 14.6865 9.855 14.0055 10.3185 13.3365C7.77 13.4055 5.6835 14.421 4.2375 15.8655C2.898 17.205 2.106 18.906 1.983 20.5245C3.462 19.395 5.0415 18.555 7.1775 19.3815C7.395 18.795 7.635 18.204 7.9035 17.61ZM17.5755 18.4395C17.0865 17.952 17.0865 17.16 17.5755 16.6725C18.063 16.1835 18.855 16.1835 19.3425 16.6725C19.8315 17.1615 19.8315 17.9535 19.3425 18.441C18.8535 18.9285 18.063 18.9285 17.5755 18.4395ZM23.7615 12.252C22.7865 11.277 21.2025 11.277 20.2275 12.252C19.251 13.2285 19.251 14.8125 20.2275 15.7875C21.2025 16.764 22.7865 16.764 23.763 15.7875C24.738 14.8125 24.738 13.2285 23.7615 12.252ZM21.375 14.64C21.033 14.298 21.033 13.743 21.375 13.4025C21.7155 13.0605 22.272 13.0605 22.614 13.4025C22.9545 13.743 22.953 14.298 22.614 14.64C22.272 14.9805 21.717 14.9805 21.375 14.64ZM2.4615 30.4725L1.329 29.34L7.8405 22.8555L8.973 23.988L2.4615 30.4725ZM8.6835 32.793L7.551 31.6605L12.096 27.0795L13.23 28.212L8.6835 32.793ZM1.1325 36L0 34.8675L8.0595 26.8215L9.1935 27.954L1.1325 36ZM32.757 14.5635C32.475 15.4905 31.7475 16.2165 30.8205 16.5C31.7475 16.782 32.475 17.508 32.757 18.4365C33.0405 17.508 33.7665 16.782 34.6935 16.5C33.7665 16.218 33.0405 15.492 32.757 14.5635ZM10.7745 4.8075C10.404 6.0225 9.453 6.972 8.2395 7.3425C9.4545 7.713 10.404 8.664 10.7745 9.8775C11.1465 8.664 12.096 7.713 13.3095 7.3425C12.0945 6.972 11.1465 6.0225 10.7745 4.8075ZM8.034 0C7.7355 0.9735 6.975 1.7355 6 2.0325C6.975 2.331 7.7355 3.093 8.034 4.065C8.331 3.0915 9.093 2.3295 10.065 2.0325C9.093 1.7355 8.3325 0.9735 8.034 0ZM16.1145 0C15.6405 1.5525 14.424 2.769 12.87 3.2445C14.424 3.7185 15.6405 4.9335 16.1145 6.489C16.5885 4.935 17.805 3.72 19.3575 3.2445C17.805 2.769 16.59 1.5525 16.1145 0ZM32.757 20.46C32.283 22.014 31.0665 23.229 29.5125 23.7045C31.0665 24.1785 32.283 25.4475 32.757 27C33.231 25.446 34.4475 24.1785 36 23.7045C34.4475 23.229 33.231 22.014 32.757 20.46Z" fill="#372865"/>
</svg>
